<svg xmlns="http://www.w3.org/2000/svg" viewBox="0 0 120.51 94.46"><defs><style>.cls-1{fill:#2962ff;}</style></defs><g id="Layer_2" data-name="Layer 2"><g id="Layer_1-2" data-name="Layer 1"><path class="cls-1" d="M120.51,23.61V0H0V94.46H120.51ZM117.8,91.74H2.71V23.61H117.8Zm0-70.84H2.71V2.71H117.8Zm-106.4-3a6,6,0,1,0-6-6A6,6,0,0,0,11.4,17.91Zm0-9.22a3.26,3.26,0,1,1-3.26,3.25A3.3,3.3,0,0,1,11.4,8.69Zm14.11,9.22a6,6,0,0,0,6-6,6,6,0,0,0-11.95,0A5.93,5.93,0,0,0,25.51,17.91Zm0-9.22a3.26,3.26,0,1,1-3.25,3.25A3.21,3.21,0,0,1,25.51,8.69Zm14,9.22a6,6,0,1,0-6-6A6,6,0,0,0,39.49,17.91Zm0-9.22a3.26,3.26,0,1,1-3.25,3.25A3.3,3.3,0,0,1,39.49,8.69ZM79.12,75.46a1.33,1.33,0,0,0,1.9,0L98.39,58.09a1.26,1.26,0,0,0,.41-1,1.23,1.23,0,0,0-.41-1L81,39a1.34,1.34,0,1,0-1.9,1.9L95.54,57.14,79.12,73.56A1.31,1.31,0,0,0,79.12,75.46Zm-39.63,0a1.33,1.33,0,0,0,1.9,0,1.3,1.3,0,0,0,0-1.9L25,57.14,41.39,40.71a1.3,1.3,0,0,0,0-1.9,1.32,1.32,0,0,0-1.9,0L22.12,56.19a1.23,1.23,0,0,0-.41,1,1.26,1.26,0,0,0,.41,1Zm9.1.4a1.68,1.68,0,0,0,1.08-.54L73,40.58a1.37,1.37,0,1,0-2.3-1.49L47.5,73.83a1.33,1.33,0,0,0,.41,1.9A1,1,0,0,0,48.59,75.86Z"/></g></g></svg>