<svg xmlns="http://www.w3.org/2000/svg" viewBox="0 0 78.92 94.41"><defs><style>.cls-1{fill:#2962ff;}</style></defs><g id="Layer_2" data-name="Layer 2"><g id="Layer_1-2" data-name="Layer 1"><path class="cls-1" d="M67.86,0H1.52A1.52,1.52,0,0,0,0,1.52V92.89a1.52,1.52,0,0,0,1.52,1.52H67.86A11.07,11.07,0,0,0,78.92,83.35V11.06A11.07,11.07,0,0,0,67.86,0ZM3.05,3.05h9.66V91.36H3.05Zm72.82,80.3a8,8,0,0,1-8,8H15.76V3.05h52.1a8,8,0,0,1,8,8ZM52.53,41.51H39.09A1.53,1.53,0,0,0,37.57,43V75.35a1.52,1.52,0,0,0,1.52,1.52H52.53a1.53,1.53,0,0,0,1.53-1.52V43A1.54,1.54,0,0,0,52.53,41.51ZM51,73.82H40.62V44.56H51Zm-5.2-56.28a8.25,8.25,0,1,0,8.25,8.24A8.25,8.25,0,0,0,45.81,17.54Zm0,13.44a5.2,5.2,0,1,1,5.2-5.2A5.2,5.2,0,0,1,45.81,31Z"/></g></g></svg>