<svg xmlns="http://www.w3.org/2000/svg" viewBox="0 0 120.51 94.46"><defs><style>.cls-1{fill:#2962ff;}</style></defs><g id="Layer_2" data-name="Layer 2"><g id="Layer_1-2" data-name="Layer 1"><path class="cls-1" d="M13.57,94.46h93.37a13.61,13.61,0,0,0,13.57-13.57V13.57A13.61,13.61,0,0,0,106.94,0H13.57A13.61,13.61,0,0,0,0,13.57V80.89A13.61,13.61,0,0,0,13.57,94.46ZM2.71,13.57A10.9,10.9,0,0,1,13.57,2.71h93.37A10.9,10.9,0,0,1,117.8,13.57V20.9H2.71Zm0,10H117.8V80.89a10.89,10.89,0,0,1-10.86,10.85H13.57A10.89,10.89,0,0,1,2.71,80.89ZM12.35,6a6,6,0,1,0,6,6A6,6,0,0,0,12.35,6Zm0,9.23a3.26,3.26,0,1,1,3.26-3.26A3.31,3.31,0,0,1,12.35,15.2ZM26.33,6a6,6,0,1,0,6,6A5.94,5.94,0,0,0,26.33,6Zm0,9.23a3.26,3.26,0,1,1,3.26-3.26A3.22,3.22,0,0,1,26.33,15.2ZM40.44,6a6,6,0,1,0,6,6A6,6,0,0,0,40.44,6Zm0,9.23a3.26,3.26,0,1,1,3.26-3.26A3.3,3.3,0,0,1,40.44,15.2ZM18.73,74.64a1.31,1.31,0,0,0,1.9,0L38,57.27a1.31,1.31,0,0,0,0-1.9L20.63,38a1.34,1.34,0,0,0-1.9,1.9L35.15,56.32,18.73,72.74A1.32,1.32,0,0,0,18.73,74.64Zm31.76-17H77.9a1.36,1.36,0,1,0,0-2.72H50.49a1.36,1.36,0,0,0,0,2.72Z"/></g></g></svg>