<svg xmlns="http://www.w3.org/2000/svg" viewBox="0 0 89.25 94.46"><defs><style>.cls-1{fill:#2962ff;}</style></defs><g id="Layer_2" data-name="Layer 2"><g id="Layer_1-2" data-name="Layer 1"><path class="cls-1" d="M49.13,90.3A5.9,5.9,0,0,1,40,90.16a1,1,0,0,0-1.6,1.28,8,8,0,0,0,4.32,2.78,8.19,8.19,0,0,0,1.91.24,8,8,0,0,0,6.09-2.84,1,1,0,0,0-.12-1.44A1,1,0,0,0,49.13,90.3Zm-4.5-69.86a24.38,24.38,0,0,0-9.44,46.85v7.64h18.9V67.3a24.38,24.38,0,0,0-9.46-46.86ZM52,65.91v7H45.61V55.1L53,47.69a1,1,0,0,0-1.45-1.45l-7,7-6.66-6.66A1,1,0,0,0,36.47,48l7.09,7.09V72.89H37.25v-7l-.66-.25A22.32,22.32,0,1,1,67,44.84,22.49,22.49,0,0,1,52.69,65.67Zm.91,19.73H36.2a1,1,0,1,0,0,2H52.94a1,1,0,0,0,0-2Zm0-4H36.2a1,1,0,0,0,0,2.06H52.94a1,1,0,0,0,0-2.06Zm0-4H36.2a1,1,0,1,0,0,2H52.94a1,1,0,0,0,0-2Zm-8.37-61.8a1,1,0,0,0,1-1V1a1,1,0,0,0-2.06,0V14.86A1,1,0,0,0,44.57,15.88Zm-21.72,9.5a1,1,0,0,0,1.46,0,1,1,0,0,0,0-1.45l-9.78-9.78a1,1,0,0,0-1.45,1.45ZM66.41,66A1,1,0,0,0,65,66a1,1,0,0,0,0,1.44l9.78,9.79a1,1,0,0,0,1.46,0,1,1,0,0,0,0-1.45Zm-.73-40.35a1,1,0,0,0,.73-.3l9.78-9.78a1,1,0,1,0-1.45-1.45L65,23.93a1,1,0,0,0,0,1.45A1,1,0,0,0,65.68,25.68ZM22.85,66l-9.78,9.78a1,1,0,0,0,0,1.45,1,1,0,0,0,.73.3,1.08,1.08,0,0,0,.73-.3l9.78-9.79a1,1,0,0,0,0-1.44A1,1,0,0,0,22.85,66ZM88.23,44.67H74.39a1,1,0,0,0,0,2.06H88.22a1,1,0,0,0,1-1A1,1,0,0,0,88.23,44.67Zm-72.34,1a1,1,0,0,0-1-1H1a1,1,0,1,0,0,2.06H14.86A1,1,0,0,0,15.89,45.7Z"/></g></g></svg>