<svg xmlns="http://www.w3.org/2000/svg" viewBox="0 0 94.47 94.47"><defs><style>.cls-1{fill:#2962ff;}</style></defs><g id="Layer_2" data-name="Layer 2"><g id="Layer_1-2" data-name="Layer 1"><path class="cls-1" d="M5.11,94.47A5.09,5.09,0,0,1,0,89.21a5.35,5.35,0,0,1,1.5-3.79l22-20.93a1.11,1.11,0,0,1,1.54,0l1.32,1.38V63.2l-.09-.13a17.69,17.69,0,0,1,0-19.37l.09-.14V1.09A1.09,1.09,0,0,1,27.46,0H93.38a1.09,1.09,0,0,1,1.09,1.09v79.1a1.18,1.18,0,0,1-.14.28l-.11.17,0,.15a1.19,1.19,0,0,1-.16.23L80.91,94.19a1.91,1.91,0,0,1-.33.2,1,1,0,0,1-.39.08H27.46a1.09,1.09,0,0,1-1.09-1.09V76.43L9,93a5.2,5.2,0,0,1-3.66,1.49ZM28.56,68,31,70.42a1.11,1.11,0,0,1,.31.78A1.08,1.08,0,0,1,31,72l-2.41,2.31v18H79.1V80.19a1.09,1.09,0,0,1,1.1-1.09H92.29V2.19H28.52V40.66l1.07-.77.52-.44.52-.39.54-.39.5-.33,1.11-.62.61-.33.49-.21.67-.28a2.54,2.54,0,0,1,.45-.17l.74-.26.48-.14.73-.19.49-.11.73-.13h.4l.83-.09h3.88l1.21.2.52.11.71.18.86.26a2.13,2.13,0,0,1,.33.11l1,.39H82.09a1.1,1.1,0,1,1,0,2.19H51.8l1.83,1.62a17.84,17.84,0,0,1,4.51,7.73l.12.4H82.09a1.1,1.1,0,1,1,0,2.19H58.64l.06.61a17.85,17.85,0,0,1-.17,4.56.72.72,0,0,0-.1.34,1.69,1.69,0,0,1,0,.22c-.09.42-.17.8-.26,1.17a20,20,0,0,1-.75,2.09l-.33.77h25a1.1,1.1,0,1,1,0,2.19H55.81l-.17.22a18.35,18.35,0,0,1-2.06,2.34,17.68,17.68,0,0,1-12.46,5.19H38.77l-1.08-.16-1.61-.39-1.55-.54-.64-.27L33,69.13l-.62-.33-.83-.49L31,67.92a7.57,7.57,0,0,1-.74-.56l-.6-.46L28.56,66ZM3.1,87a3.17,3.17,0,0,0-.89,2.16A3.09,3.09,0,0,0,5.3,92.28h0a3,3,0,0,0,2.19-.93L26.76,73.08l1.94-1.86-4.41-4.37Zm78.19,3.73,9.46-9.43H81.29ZM30.2,42.35l-.05,0a14.94,14.94,0,0,0-1.71,2.1,15.61,15.61,0,0,0,0,17.77,14.69,14.69,0,0,0,1.71,2.07,15.49,15.49,0,0,0,21.91,0,14.13,14.13,0,0,0,2.25-2.85,15.46,15.46,0,0,0,2.23-9.78c0-.21-.06-.43-.1-.66a3.49,3.49,0,0,1-.1-.68,15.28,15.28,0,0,0-4.26-8l-.17-.16a14.78,14.78,0,0,0-6.57-3.77l-.5-.15A15.51,15.51,0,0,0,43.1,38h-.38c-.29,0-.63,0-1,0s-.67,0-1,0h-.42a15,15,0,0,0-1.67.18h-.31a15,15,0,0,0-2,.48l-.46.18a13.76,13.76,0,0,0-1.7.69l-.17.09a18.08,18.08,0,0,0-1.71,1l-.4.29a12.62,12.62,0,0,0-1.54,1.3Zm8.63-15a1.1,1.1,0,0,1,0-2.19H82.09a1.1,1.1,0,1,1,0,2.19Zm0-12a1.1,1.1,0,0,1,0-2.19H69.24a1.1,1.1,0,0,1,0,2.19Z"/></g></g></svg>